name rise30.3154peak39.0474fall46.5389.mot
datacolumns 19
datarows 32
range 1.97832900000000 2.02999200000000
endheader
time	ground_force1_vx	ground_force1_vy	ground_force1_vz	ground_force1_px	ground_force1_py	ground_force1_pz	ground_force2_vx	ground_force2_vy	ground_force2_vz	ground_force2_px	ground_force2_py	ground_force2_pz	ground_torque1_x	ground_torque1_y	ground_torque1_z	ground_torque2_x	ground_torque2_y	ground_torque2_z	
1.97832900000000	-35.15403700000000	799.85641199999998	59.19424700000000	0.10723000000000	0.00000000000000	0.10030500000000	-5.68369800000000	21.99095700000000	3.37372400000000	0.00000000000000	0.00000000000000	0.00000000000000	0.00000000000000	19.26268300000000	0.00000000000000	0.00000000000000	0.78283700000000	0.00000000000000	
1.97999600000000	-35.55197700000000	797.45612500000004	59.10159500000000	0.10637900000000	0.00000000000000	0.10020900000000	-6.82568900000000	28.14712500000000	4.11203000000000	0.28260400000000	0.00000000000000	-0.10705500000000	0.00000000000000	19.16741500000000	0.00000000000000	0.00000000000000	1.39879700000000	0.00000000000000	
1.98166600000000	-35.97425200000000	794.96749299999999	58.99470000000000	0.10553700000000	0.00000000000000	0.10010800000000	-7.92049400000000	34.72661900000000	4.84198700000000	0.29078000000000	0.00000000000000	-0.10787000000000	0.00000000000000	19.07544700000000	0.00000000000000	0.00000000000000	1.70848900000000	0.00000000000000	
1.98332800000000	-36.42124500000000	792.39022699999998	58.87341100000000	0.10470700000000	0.00000000000000	0.10000300000000	-8.92328900000000	41.60332900000000	5.53790800000000	0.29812800000000	0.00000000000000	-0.10859200000000	0.00000000000000	18.98689900000000	0.00000000000000	0.00000000000000	2.02174700000000	0.00000000000000	
1.98499300000000	-36.89325900000000	789.72393099999999	58.73759100000000	0.10388700000000	0.00000000000000	0.09989500000000	-9.79409300000000	48.65323100000000	6.17628000000000	0.30477500000000	0.00000000000000	-0.10923900000000	0.00000000000000	18.90187500000000	0.00000000000000	0.00000000000000	2.32925900000000	0.00000000000000	
1.98665900000000	-37.39051800000000	786.96809699999994	58.58711500000000	0.10307900000000	0.00000000000000	0.09978200000000	-10.50037900000000	55.76382600000000	6.73730500000000	0.31082000000000	0.00000000000000	-0.10982200000000	0.00000000000000	18.82046100000000	0.00000000000000	0.00000000000000	2.62254400000000	0.00000000000000	
1.98833300000000	-37.91315900000000	784.12210200000004	58.42187300000000	0.10228300000000	0.00000000000000	0.09966600000000	-11.01879300000000	62.84149600000000	7.20596000000000	0.31634400000000	0.00000000000000	-0.11035300000000	0.00000000000000	18.74272500000000	0.00000000000000	0.00000000000000	2.89447900000000	0.00000000000000	
1.98999300000000	-38.46123300000000	781.18520899999999	58.24176600000000	0.10150000000000	0.00000000000000	0.09954600000000	-11.33588800000000	69.81625099999999	7.57253200000000	0.32141000000000	0.00000000000000	-0.11084000000000	0.00000000000000	18.66871500000000	0.00000000000000	0.00000000000000	3.13964000000000	0.00000000000000	
1.99166600000000	-39.03470100000000	778.15656200000001	58.04670900000000	0.10072900000000	0.00000000000000	0.09942200000000	-11.44795400000000	76.64379300000000	7.83263100000000	0.32607200000000	0.00000000000000	-0.11129000000000	0.00000000000000	18.59846000000000	0.00000000000000	0.00000000000000	3.35445500000000	0.00000000000000	
1.99333300000000	-39.63343100000000	775.03518899999995	57.83663000000000	0.09997100000000	0.00000000000000	0.09929400000000	-11.36007300000000	83.30511900000000	7.98677200000000	0.33037400000000	0.00000000000000	-0.11170700000000	0.00000000000000	18.53196900000000	0.00000000000000	0.00000000000000	3.53718500000000	0.00000000000000	
1.99499900000000	-40.25719500000000	771.81999900000005	57.61146600000000	0.09922600000000	0.00000000000000	0.09916300000000	-11.08461600000000	89.80411200000000	8.03962700000000	0.33435200000000	0.00000000000000	-0.11209700000000	0.00000000000000	18.46923000000000	0.00000000000000	0.00000000000000	3.68774700000000	0.00000000000000	
1.99666000000000	-40.90566800000000	768.50978799999996	57.37116800000000	0.09849400000000	0.00000000000000	0.09902800000000	-10.63939600000000	96.16365200000000	7.99905800000000	0.33803700000000	0.00000000000000	-0.11246400000000	0.00000000000000	18.41021100000000	0.00000000000000	0.00000000000000	3.80743100000000	0.00000000000000	
1.99833100000000	-41.57842600000000	765.10323800000003	57.11569700000000	0.09777400000000	0.00000000000000	0.09889000000000	-10.04569500000000	102.42084600000000	7.87506400000000	0.34145500000000	0.00000000000000	-0.11281000000000	0.00000000000000	18.35486100000000	0.00000000000000	0.00000000000000	3.89855900000000	0.00000000000000	
1.99999600000000	-42.27494300000000	761.59892100000002	56.84502400000000	0.09706700000000	0.00000000000000	0.09874800000000	-9.32634400000000	108.62190699999999	7.67873600000000	0.34462800000000	0.00000000000000	-0.11313900000000	0.00000000000000	18.30310600000000	0.00000000000000	0.00000000000000	3.96410500000000	0.00000000000000	
2.00166400000000	-42.99458900000000	757.99530200000004	56.55913400000000	0.09637300000000	0.00000000000000	0.09860300000000	-8.50400700000000	114.81717600000000	7.42129400000000	0.34757600000000	0.00000000000000	-0.11345300000000	0.00000000000000	18.25485300000000	0.00000000000000	0.00000000000000	4.00733500000000	0.00000000000000	
2.00332800000000	-43.73663000000000	754.29074900000001	56.25801600000000	0.09569100000000	0.00000000000000	0.09845400000000	-7.59976500000000	121.05664100000000	7.11329400000000	0.35031600000000	0.00000000000000	-0.11375400000000	0.00000000000000	18.20998500000000	0.00000000000000	0.00000000000000	4.03148800000000	0.00000000000000	
2.00499600000000	-44.50022600000000	750.48352999999997	55.94167400000000	0.09502000000000	0.00000000000000	0.09830300000000	-6.63206400000000	127.38623900000000	6.76400800000000	0.35286200000000	0.00000000000000	-0.11404300000000	0.00000000000000	18.16837000000000	0.00000000000000	0.00000000000000	4.03950600000000	0.00000000000000	
2.00666100000000	-45.28442800000000	746.57182799999998	55.61012000000000	0.09436100000000	0.00000000000000	0.09814800000000	-5.61604800000000	133.84507099999999	6.38102200000000	0.35522700000000	0.00000000000000	-0.11432200000000	0.00000000000000	18.12985000000000	0.00000000000000	0.00000000000000	4.03384500000000	0.00000000000000	
2.00832500000000	-46.08818300000000	742.55374200000006	55.26337400000000	0.09371200000000	0.00000000000000	0.09799100000000	-4.56324900000000	140.46359600000000	5.97002100000000	0.35742300000000	0.00000000000000	-0.11459300000000	0.00000000000000	18.09425100000000	0.00000000000000	0.00000000000000	4.01635300000000	0.00000000000000	
2.00999700000000	-46.91032700000000	738.42729999999995	54.90146700000000	0.09307400000000	0.00000000000000	0.09783100000000	-3.48160200000000	147.26275200000001	5.53476900000000	0.35945900000000	0.00000000000000	-0.11485500000000	0.00000000000000	18.06137800000000	0.00000000000000	0.00000000000000	3.98822300000000	0.00000000000000	
2.01166000000000	-47.74959000000000	734.19046400000002	54.52443700000000	0.09244500000000	0.00000000000000	0.09766800000000	-2.37573000000000	154.25391500000001	5.07722200000000	0.36134500000000	0.00000000000000	-0.11511100000000	0.00000000000000	18.03101500000000	0.00000000000000	0.00000000000000	3.95000100000000	0.00000000000000	
2.01332500000000	-48.60459300000000	729.84114099999999	54.13233500000000	0.09182600000000	0.00000000000000	0.09750300000000	-1.24741100000000	161.43952999999999	4.59776500000000	0.36308800000000	0.00000000000000	-0.11536000000000	0.00000000000000	18.00293100000000	0.00000000000000	0.00000000000000	3.90165300000000	0.00000000000000	
2.01499900000000	-49.47385100000000	725.37719200000004	53.72521600000000	0.09121500000000	0.00000000000000	0.09733600000000	-0.09617700000000	168.81426500000001	4.09552300000000	0.36469700000000	0.00000000000000	-0.11560400000000	0.00000000000000	17.97687400000000	0.00000000000000	0.00000000000000	3.84266200000000	0.00000000000000	
2.01666600000000	-50.35577600000000	720.79644599999995	53.30314800000000	0.09061100000000	0.00000000000000	0.09716600000000	1.08003300000000	176.36647900000000	3.56870900000000	0.36617800000000	0.00000000000000	-0.11584300000000	0.00000000000000	17.95257500000000	0.00000000000000	0.00000000000000	3.77214500000000	0.00000000000000	
2.01833000000000	-51.24867200000000	716.09670800000004	52.86620700000000	0.09001400000000	0.00000000000000	0.09699400000000	2.28422600000000	184.07985800000000	3.01497600000000	0.36753600000000	0.00000000000000	-0.11607700000000	0.00000000000000	17.92975100000000	0.00000000000000	0.00000000000000	3.68898300000000	0.00000000000000	
2.01999400000000	-52.15074500000000	711.27577699999995	52.41447700000000	0.08942200000000	0.00000000000000	0.09682100000000	3.51975600000000	191.93505300000001	2.43175200000000	0.36877900000000	0.00000000000000	-0.11630700000000	0.00000000000000	17.90809900000000	0.00000000000000	0.00000000000000	3.59195000000000	0.00000000000000	
2.02166400000000	-53.06010100000000	706.33145100000002	51.94805500000000	0.08883600000000	0.00000000000000	0.09664500000000	4.78981100000000	199.91121600000000	1.81652600000000	0.36990900000000	0.00000000000000	-0.11653400000000	0.00000000000000	17.88730600000000	0.00000000000000	0.00000000000000	3.47982200000000	0.00000000000000	
2.02333100000000	-53.97475200000000	701.26155300000005	51.46704500000000	0.08825300000000	0.00000000000000	0.09646800000000	6.09701300000000	207.98731599999999	1.16708500000000	0.37093400000000	0.00000000000000	-0.11675800000000	0.00000000000000	17.86704100000000	0.00000000000000	0.00000000000000	3.35147600000000	0.00000000000000	
2.02500300000000	-54.89261700000000	696.06393400000002	50.97156300000000	0.08767400000000	0.00000000000000	0.09628900000000	7.44312200000000	216.14320900000001	0.48168700000000	0.37185600000000	0.00000000000000	-0.11697800000000	0.00000000000000	17.84696400000000	0.00000000000000	0.00000000000000	3.20596100000000	0.00000000000000	
2.02666000000000	-55.81152700000000	690.73649999999998	50.46173600000000	0.08709600000000	0.00000000000000	0.09611000000000	8.82887400000000	224.36041399999999	-0.24083100000000	0.37268000000000	0.00000000000000	-0.11719500000000	0.00000000000000	17.82672000000000	0.00000000000000	0.00000000000000	3.04255100000000	0.00000000000000	
2.02832900000000	-56.72923100000000	685.27722100000005	49.93770000000000	0.08652000000000	0.00000000000000	0.09592800000000	10.25390600000000	232.62260400000000	-1.00100000000000	0.37341000000000	0.00000000000000	-0.11741000000000	0.00000000000000	17.80594500000000	0.00000000000000	0.00000000000000	2.86076900000000	0.00000000000000	
2.02999200000000	-57.64339800000000	679.68415500000003	49.39960600000000	0.08594400000000	0.00000000000000	0.09574600000000	11.71678800000000	240.91583299999999	-1.79872200000000	0.37404900000000	0.00000000000000	-0.11762200000000	0.00000000000000	17.78426600000000	0.00000000000000	0.00000000000000	2.66039700000000	0.00000000000000	
